<?xml version="1.0" standalone="no"?><!DOCTYPE svg PUBLIC "-//W3C//DTD SVG 1.1//EN" "http://www.w3.org/Graphics/SVG/1.1/DTD/svg11.dtd"><svg t="1532568270574" class="icon" style="" viewBox="0 0 1024 1024" version="1.1" xmlns="http://www.w3.org/2000/svg" p-id="4001" xmlns:xlink="http://www.w3.org/1999/xlink" width="200" height="200"><defs><style type="text/css"></style></defs><path d="M339.647142 484.900494c-9.394495 0-18.788991-5.781228-23.124912-15.175723l-25.292872-56.366973c-5.781228-13.007763 0-27.460833 13.007763-33.242061 13.007763-5.781228 27.460833 0 33.24206 13.007763l25.292873 56.366973c5.781228 13.007763 0 27.460833-13.007763 33.242061-2.890614 1.445307-6.503881 2.16796-10.117149 2.16796zM427.810868 484.900494c-3.613267 0-7.226535-0.722653-10.117149-2.16796-13.007763-5.781228-18.788991-20.234298-13.007763-33.242061l25.292873-56.366973c5.781228-13.007763 20.234298-18.788991 33.24206-13.007763 13.007763 5.781228 18.788991 20.234298 13.007763 33.242061l-25.292872 56.366973c-4.335921 9.394495-13.730416 15.175723-23.124912 15.175723z" p-id="4002"></path><path d="M491.404375 497.908257h-225.467889c-13.730416 0-25.292872-11.562456-25.292873-25.292872s11.562456-25.292872 25.292873-25.292873h225.467889c13.730416 0 25.292872 11.562456 25.292873 25.292873s-11.562456 25.292872-25.292873 25.292872zM491.404375 607.751588h-225.467889c-13.730416 0-25.292872-11.562456-25.292873-25.292872s11.562456-25.292872 25.292873-25.292873h225.467889c13.730416 0 25.292872 11.562456 25.292873 25.292873s-11.562456 25.292872-25.292873 25.292872z" p-id="4003"></path><path d="M378.67043 700.973888c-13.730416 0-25.292872-11.562456-25.292872-25.292872v-202.342978c0-13.730416 11.562456-25.292872 25.292872-25.292872s25.292872 11.562456 25.292873 25.292872v202.342978c0 13.730416-11.562456 25.292872-25.292873 25.292872z" p-id="4004"></path><path d="M760.954128 826.715596m-28.183486 0a28.183486 28.183486 0 1 0 56.366973 0 28.183486 28.183486 0 1 0-56.366973 0Z" p-id="4005"></path><path d="M872.242766 826.715596m-28.183486 0a28.183486 28.183486 0 1 0 56.366973 0 28.183486 28.183486 0 1 0-56.366973 0Z" p-id="4006"></path><path d="M875.856034 713.258998m-28.183486 0a28.183486 28.183486 0 1 0 56.366972 0 28.183486 28.183486 0 1 0-56.366972 0Z" p-id="4007"></path><path d="M776.852505 500.076217h-154.647847c-13.730416 0-25.292872-11.562456-25.292873-25.292872s11.562456-25.292872 25.292873-25.292872h154.647847c13.730416 0 25.292872 11.562456 25.292873 25.292872s-10.839802 25.292872-25.292873 25.292872z" p-id="4008"></path><path d="M726.266761 608.474241h-104.062103c-13.730416 0-25.292872-11.562456-25.292873-25.292872s11.562456-25.292872 25.292873-25.292872h104.062103c13.730416 0 25.292872 11.562456 25.292872 25.292872s-10.839802 25.292872-25.292872 25.292872z" p-id="4009"></path><path d="M667.009174 853.453776h-459.607621c-45.52717 0-83.105152-37.577982-83.105152-83.105152v-516.697248c0-45.52717 37.577982-83.105152 83.105152-83.105152h41.191249c11.562456 0 22.402258 7.949188 24.570218 19.511645 4.335921 17.343684 19.511644 29.628793 37.577982 29.628793s33.242061-12.285109 37.577982-29.628793c2.890614-11.562456 13.007763-19.511644 24.570219-19.511645h86.718419c11.562456 0 22.402258 7.949188 24.570219 19.511645 4.335921 17.343684 19.511644 29.628793 37.577981 29.628793s33.242061-12.285109 37.577982-29.628793c2.890614-11.562456 13.007763-19.511644 24.570219-19.511645h79.491884c11.562456 0 22.402258 7.949188 24.570219 19.511645 4.335921 17.343684 19.511644 29.628793 37.577981 29.628793s33.242061-12.285109 37.577982-29.628793c2.890614-11.562456 13.007763-19.511644 24.570219-19.511645h31.0741c45.52717 0 83.105152 37.577982 83.105152 83.105152v356.990826c0 13.730416-11.562456 25.292872-25.292873 25.292872s-25.292872-11.562456-25.292872-25.292872v-356.990826c0-18.066337-14.45307-32.519407-32.519407-32.519407h-13.730416c-14.45307 29.628793-44.804517 49.863091-79.491885 49.863091s-65.038814-19.511644-79.491884-49.863091h-44.081863c-14.45307 29.628793-44.804517 49.863091-79.491884 49.863091s-65.038814-19.511644-79.491885-49.863091h-51.308398c-14.45307 29.628793-44.804517 49.863091-79.491884 49.863091s-65.038814-19.511644-79.491884-49.863091h-23.847565c-18.066337 0-32.519407 14.45307-32.519408 32.519407v516.697248c0 18.066337 14.45307 32.519407 32.519408 32.519407h459.607621c13.730416 0 25.292872 11.562456 25.292873 25.292872s-13.007763 25.292872-26.73818 25.292873z" p-id="4010"></path></svg>