<?xml version="1.0" standalone="no"?><!DOCTYPE svg PUBLIC "-//W3C//DTD SVG 1.1//EN" "http://www.w3.org/Graphics/SVG/1.1/DTD/svg11.dtd"><svg t="1532571795470" class="icon" style="" viewBox="0 0 1024 1024" version="1.1" xmlns="http://www.w3.org/2000/svg" p-id="2194" xmlns:xlink="http://www.w3.org/1999/xlink" width="200" height="200"><defs><style type="text/css"></style></defs><path d="M760.832 348.16 201.728 348.16c-12.288 0-23.552 10.24-23.552 23.552s10.24 23.552 23.552 23.552l559.104 0c12.288 0 23.552-10.24 23.552-23.552S773.12 348.16 760.832 348.16z" p-id="2195"></path><path d="M762.88 200.704 203.776 200.704c-12.288 0-23.552 10.24-23.552 23.552 0 12.288 10.24 23.552 23.552 23.552l559.104 0c12.288 0 23.552-10.24 23.552-23.552C788.48 212.992 775.168 200.704 762.88 200.704z" p-id="2196"></path><path d="M790.528 917.504l0-27.648c10.24-2.048 29.696-8.192 35.84-15.36 10.24-10.24 12.288-21.504 12.288-35.84s-4.096-27.648-12.288-33.792c-10.24-8.192-23.552-15.36-40.96-23.552-10.24-4.096-21.504-10.24-25.6-12.288-4.096-4.096-6.144-10.24-6.144-17.408 0-8.192 2.048-15.36 6.144-19.456 4.096-4.096 10.24-8.192 19.456-8.192s15.36 4.096 19.456 10.24c4.096 6.144 8.192 15.36 8.192 27.648l29.696 0c0-23.552-6.144-29.696-12.288-43.008-8.192-10.24-12.288-17.408-35.84-19.456l0-29.696-23.552 0 0 29.696c-10.24 2.048-25.6 8.192-31.744 15.36-8.192 10.24-10.24 21.504-10.24 33.792 0 15.36 6.144 27.648 12.288 35.84 10.24 8.192 23.552 15.36 43.008 23.552 10.24 4.096 19.456 8.192 25.6 12.288 4.096 4.096 8.192 10.24 8.192 17.408 0 8.192-2.048 15.36-8.192 19.456-6.144 4.096-12.288 8.192-23.552 8.192-10.24 0-17.408-6.144-23.552-10.24-6.144-6.144-10.24-6.144-10.24-29.696l-29.696 0c0 23.552 4.096 35.84 12.288 45.056 10.24 10.24 25.6 17.408 35.84 19.456l0 27.648L790.528 917.504 790.528 917.504zM984.064 626.688l-68.608-21.504c-4.096-2.048-8.192 0-10.24 2.048-2.048 2.048-6.144 6.144-6.144 10.24l0 51.2-45.056 0 0-72.704c0-6.144-2.048-10.24-8.192-10.24l-63.488-19.456c-2.048 0-4.096 0-6.144 0l-68.608 17.408c-6.144 2.048-8.192 6.144-8.192 10.24l0 72.704-45.056 0 0-51.2c0-4.096-2.048-8.192-4.096-10.24-2.048-2.048-6.144-2.048-10.24-2.048L570.368 624.64c-2.048 2.048-4.096 6.144-4.096 12.288L583.68 949.248c0 4.096 4.096 10.24 8.192 10.24l183.296 57.344c2.048 0 2.048 0 4.096 0 2.048 0 2.048 0 4.096 0l183.296-57.344c4.096-2.048 8.192-6.144 8.192-10.24l2.048-21.504 0 0c0-6.144-6.144-10.24-10.24-10.24-4.096 0-10.24 6.144-10.24 10.24l0 0 0 12.288-177.152 53.248-175.104-53.248-17.408-294.912 45.056-12.288 0 45.056c0 6.144 6.144 15.36 10.24 15.36l66.56 0c6.144 0 12.288-10.24 12.288-15.36l0-70.656 55.296-15.36 55.296 15.36 0 70.656c0 6.144 8.192 15.36 12.288 15.36l68.608 0c6.144 0 10.24-10.24 10.24-15.36l0-45.056 45.056 12.288-10.24 224.256 0 0c0 6.144 6.144 10.24 10.24 10.24 6.144 0 10.24-6.144 10.24-10.24l0 0L993.28 635.904C993.28 631.808 991.232 626.688 984.064 626.688L984.064 626.688 984.064 626.688z" p-id="2197"></path><path d="M773.12 6.144 54.272 6.144 30.72 6.144l0 23.552 0 836.608c0 76.8 59.392 138.24 136.192 138.24l325.632 0 0 0c12.288-1.024 21.504-11.264 21.504-23.552 0-12.288-9.216-22.528-21.504-23.552l0 0-4.096 0L164.864 957.44c-47.104 0-87.04-40.96-87.04-90.112L77.824 55.296l695.296 0c47.104 0 87.04 40.96 87.04 90.112l0 360.448 0 0c0 13.312 11.264 24.576 24.576 24.576 13.312 0 24.576-11.264 24.576-24.576L909.312 145.408C910.336 68.608 849.92 6.144 773.12 6.144z" p-id="2198"></path></svg>