<?xml version="1.0" standalone="no"?><!DOCTYPE svg PUBLIC "-//W3C//DTD SVG 1.1//EN" "http://www.w3.org/Graphics/SVG/1.1/DTD/svg11.dtd"><svg t="1532568152537" class="icon" style="" viewBox="0 0 1024 1024" version="1.1" xmlns="http://www.w3.org/2000/svg" p-id="3877" xmlns:xlink="http://www.w3.org/1999/xlink" width="200" height="200"><defs><style type="text/css"></style></defs><path d="M890.309104 756.618207h-87.441073v-59.980239h87.441073c13.730416 0 25.292872-11.562456 25.292872-25.292873s-11.562456-25.292872-25.292872-25.292872H859.957657l15.175723-33.964714c5.781228-13.007763 0-27.460833-13.007762-33.242061-13.007763-5.781228-27.460833 0-33.242061 13.007763l-23.847565 54.199012h-43.35921l-23.847565-54.199012c-5.781228-13.007763-20.234298-18.788991-33.242061-13.007763-13.007763 5.781228-18.788991 20.234298-13.007763 33.242061l15.175723 33.964714H664.841214c-13.730416 0-25.292872 11.562456-25.292872 25.292872s11.562456 25.292872 25.292872 25.292873h87.441073v59.980239H664.841214c-13.730416 0-25.292872 11.562456-25.292872 25.292873s11.562456 25.292872 25.292872 25.292872h87.441073V874.410727c0 13.730416 11.562456 25.292872 25.292872 25.292872s25.292872-11.562456 25.292872-25.292872v-67.206775h87.441073c13.730416 0 25.292872-11.562456 25.292872-25.292872s-11.562456-25.292872-25.292872-25.292873z" p-id="3878"></path><path d="M565.837685 829.60621H205.956246c-9.394495 0-16.62103-7.949188-16.621031-16.62103V151.757234c0-9.394495 7.949188-16.62103 16.621031-16.621031H787.692308c9.394495 0 16.62103 7.949188 16.62103 16.621031v336.756527c0 13.730416 11.562456 25.292872 25.292872 25.292873s25.292872-11.562456 25.292873-25.292873V151.757234c0-36.855328-30.351447-67.206775-67.206775-67.206775H205.956246c-36.855328 0-67.206775 30.351447-67.206775 67.206775v661.950599c0 36.855328 30.351447 67.206775 67.206775 67.206775h359.158786c13.730416 0 25.292872-11.562456 25.292872-25.292872s-10.839802-26.015526-24.570219-26.015526z" p-id="3879"></path><path d="M715.426958 200.175018H270.99506c-13.730416 0-25.292872 11.562456-25.292872 25.292872s11.562456 25.292872 25.292872 25.292872H715.426958c13.730416 0 25.292872-11.562456 25.292873-25.292872s-11.562456-25.292872-25.292873-25.292872zM740.719831 348.318984c0-13.730416-11.562456-25.292872-25.292873-25.292872H270.99506c-13.730416 0-25.292872 11.562456-25.292872 25.292872s11.562456 25.292872 25.292872 25.292872H715.426958c13.730416 0 25.292872-11.562456 25.292873-25.292872z" p-id="3880"></path><path d="M274.608327 477.673959m-27.460832 0a27.460833 27.460833 0 1 0 54.921665 0 27.460833 27.460833 0 1 0-54.921665 0Z" p-id="3881"></path><path d="M370.721242 477.673959m-27.460833 0a27.460833 27.460833 0 1 0 54.921666 0 27.460833 27.460833 0 1 0-54.921666 0Z" p-id="3882"></path><path d="M466.834157 477.673959m-27.460833 0a27.460833 27.460833 0 1 0 54.921665 0 27.460833 27.460833 0 1 0-54.921665 0Z" p-id="3883"></path></svg>