<?xml version="1.0" standalone="no"?><!DOCTYPE svg PUBLIC "-//W3C//DTD SVG 1.1//EN" "http://www.w3.org/Graphics/SVG/1.1/DTD/svg11.dtd"><svg t="1532567145998" class="icon" style="" viewBox="0 0 1024 1024" version="1.1" xmlns="http://www.w3.org/2000/svg" p-id="1583" xmlns:xlink="http://www.w3.org/1999/xlink" width="200" height="200"><defs><style type="text/css"></style></defs><path d="M511.238149 64.380286c-246.562559 0-447.162296 200.598714-447.162296 447.140807 0 246.562559 200.599737 447.14183 447.162296 447.14183s447.162296-200.579271 447.162296-447.14183C958.399421 264.980024 757.800707 64.380286 511.238149 64.380286zM511.238149 899.745045c-214.060307 0-388.222929-174.143179-388.222929-388.223952s174.163645-388.222929 388.222929-388.222929c214.080773 0 388.222929 174.142156 388.222929 388.222929S725.318922 899.745045 511.238149 899.745045z" p-id="1584"></path><path d="M720.747813 482.072387l-180.060959 0L540.686854 302.011428c0-16.262382-13.165858-29.448706-29.448706-29.448706-16.262382 0-29.448706 13.186324-29.448706 29.448706l0 180.060959-180.060959 0c-16.262382 0-29.448706 13.186324-29.448706 29.448706s13.186324 29.470195 29.448706 29.470195l180.060959 0 0 180.039469c0 16.262382 13.186324 29.448706 29.448706 29.448706 16.282848 0 29.448706-13.187347 29.448706-29.448706L540.686854 540.991288l180.060959 0c16.282848 0 29.470195-13.207813 29.470195-29.470195S737.030661 482.072387 720.747813 482.072387z" p-id="1585"></path></svg>