<?xml version="1.0" standalone="no"?><!DOCTYPE svg PUBLIC "-//W3C//DTD SVG 1.1//EN" "http://www.w3.org/Graphics/SVG/1.1/DTD/svg11.dtd"><svg t="1532530815041" class="icon" style="" viewBox="0 0 1024 1024" version="1.1" xmlns="http://www.w3.org/2000/svg" p-id="6346" xmlns:xlink="http://www.w3.org/1999/xlink" width="200" height="200"><defs><style type="text/css"></style></defs><path d="M872.802928 755.99406 872.864326 755.99406 872.864326 755.624646Z" p-id="6347"></path><path d="M811.464931 110.044302 197.701223 110.044302c-45.431725 0-82.397638 36.993542-82.397638 82.425268l0 613.763708c0 45.404096 36.965913 82.355683 82.397638 82.355683L811.464931 888.588961c45.430702 0 82.355683-36.951587 82.355683-82.355683l0-46.293349 0-17.656125L893.820614 192.46957C893.821637 147.037844 856.896656 110.044302 811.464931 110.044302zM842.076112 742.479255l0 17.460674 0 42.262546c0 19.128663-15.541975 34.69929-34.671661 34.69929L201.718723 836.901765c-19.102057 0-34.644031-15.570627-34.644031-34.69929L167.074691 196.515722c0-19.128663 15.541975-34.671661 34.644031-34.671661l605.685729 0c19.129686 0 34.671661 15.541975 34.671661 34.671661L842.076112 742.479255z" p-id="6348"></path><path d="M720.323141 405.950685 543.767006 602.318028l-125.286448-88.889493c-5.143137-5.17179-12.178367-8.06263-19.824511-8.06263l-1.112334 0.055259-1.750877-0.055259c-7.590885 0-14.653745 2.89084-20.324908 8.646937L248.70792 683.756829c-10.955516 11.010775-10.955516 28.860305 0 39.871079 5.324262 5.338588 12.386098 8.258081 19.935028 8.258081 7.506974 0 14.56881-2.920516 20.436448-8.842389L402.938584 570.649771l124.506688 88.361467c5.198395 5.255701 12.261255 8.17417 21.187555 8.17417 7.563256 0 14.625092-2.919493 20.075221-8.368598l191.652971-213.175147c5.366218-5.324262 8.28571-12.413727 8.28571-19.99131 0-7.521301-2.919493-14.611789-8.28571-19.936051C749.740124 395.10671 731.389174 394.871349 720.323141 405.950685z" p-id="6349"></path><path d="M375.689986 426.039209c40.011272 0 72.541153-32.530904 72.541153-72.513524 0-39.994899-32.530904-72.541153-72.541153-72.541153-39.981596 0-72.541153 32.546254-72.541153 72.541153C303.148833 393.508305 335.707366 426.039209 375.689986 426.039209zM375.689986 332.227614c11.760858 0 21.298072 9.537214 21.298072 21.297049 0 11.733229-9.537214 21.270443-21.298072 21.270443s-21.298072-9.537214-21.298072-21.270443C354.391914 341.764827 363.929128 332.227614 375.689986 332.227614z" p-id="6350"></path></svg>