<?xml version="1.0" standalone="no"?><!DOCTYPE svg PUBLIC "-//W3C//DTD SVG 1.1//EN" "http://www.w3.org/Graphics/SVG/1.1/DTD/svg11.dtd"><svg class="icon" width="200px" height="200.00px" viewBox="0 0 1024 1024" version="1.1" xmlns="http://www.w3.org/2000/svg"><path fill="#333333" d="M1024 512C1024 229.230208 794.769792 0 512 0 229.230208 0 0 229.230208 0 512 0 794.769792 229.230208 1024 512 1024 625.686419 1024 733.786972 986.820171 822.292028 919.295213 832.066406 911.83785 833.944717 897.868762 826.487354 888.094383 819.029988 878.320004 805.0609 876.441692 795.286522 883.899057 714.473916 945.555057 615.842022 979.478261 512 979.478261 253.818886 979.478261 44.521739 770.181114 44.521739 512 44.521739 253.818886 253.818886 44.521739 512 44.521739 770.181114 44.521739 979.478261 253.818886 979.478261 512 979.478261 599.047373 955.670714 682.541024 911.318368 755.201306 904.912864 765.695127 908.227102 779.394737 918.720924 785.800239 929.214746 792.205743 942.914355 788.891505 949.319857 778.397683 997.906701 698.800235 1024 607.290394 1024 512ZM368.901888 475.575945 338.700849 478.186135 563.838502 653.907211 581.396516 667.61133 595.091066 650.045847 840.321161 335.498406C847.880329 325.802545 846.148198 311.814579 836.452335 304.255411 826.756474 296.696243 812.768508 298.428375 805.20934 308.124237L559.979243 622.671678 591.231806 618.810315 366.094153 443.089239 349.780358 430.356241 335.893114 445.699433 176.846524 621.420518C168.596353 630.535639 169.297534 644.61299 178.412655 652.863162 187.527777 661.113333 201.605128 660.412151 209.855299 651.29703L368.901888 475.575945Z" /></svg>