<?xml version="1.0" standalone="no"?><!DOCTYPE svg PUBLIC "-//W3C//DTD SVG 1.1//EN" "http://www.w3.org/Graphics/SVG/1.1/DTD/svg11.dtd"><svg t="1533024040972" class="icon" style="" viewBox="0 0 1024 1024" version="1.1" xmlns="http://www.w3.org/2000/svg" p-id="2076" xmlns:xlink="http://www.w3.org/1999/xlink" width="200" height="200"><defs><style type="text/css"></style></defs><path d="M463.027961 556.126968c-153.338036 0-278.088918-124.725448-278.088918-278.063484S309.689925 0 463.027961 0s278.063484 124.750882 278.063484 278.088918S616.365997 556.126968 463.027961 556.126968zM463.027961 50.993989c-125.208683 0-227.069495 101.860812-227.069495 227.069495s101.860812 227.044061 227.069495 227.044061 227.044061-101.860812 227.044061-227.044061C690.097456 152.854801 588.236644 50.993989 463.027961 50.993989z" p-id="2077"></path><path d="M33.991749 920.002782c-1.831206 0-3.662411-0.203467-5.51905-0.610402-13.759475-3.026576-22.432269-16.658884-19.405693-30.41836 27.13745-122.741642 99.724405-229.282202 204.408325-299.987085 11.673936-7.833491 27.544384-4.781481 35.403308 6.867021 7.884357 11.673936 4.806915 27.518951-6.867021 35.428742-93.79842 63.329194-158.831653 158.780786-183.12056 268.703989C56.245983 911.914957 45.691118 920.002782 33.991749 920.002782z" p-id="2078"></path><path d="M609.397243 920.028215 34.042615 920.028215c-14.09011 0-25.509711-11.419602-25.509711-25.509711s11.419602-25.509711 25.509711-25.509711l575.329194 0c14.09011 0 25.509711 11.419602 25.509711 25.509711S623.487352 920.028215 609.397243 920.028215z" p-id="2079"></path><path d="M854.67706 1024c-14.064676 0-25.433411-11.368735-25.433411-25.433411l0-190.928618c0-6.943321 2.848542-13.632308 7.909791-18.439223l126.785555-120.579802c3.687845-3.687845 5.849685-8.927127 5.849685-14.700512 0-11.826536-9.639263-21.440366-21.465799-21.440366L640.553171 632.478069c-11.826536 0-21.465799 9.613829-21.465799 21.440366 0 5.798818 2.212707 11.063534 6.40922 15.260047l116.968258 120.986737c4.603447 4.756048 7.146789 11.088967 7.146789 17.676221l0 140.519597c0 14.064676-11.368735 25.433411-25.433411 25.433411s-25.433411-11.368735-25.433411-25.433411l0-130.244499-109.516268-113.280413c-13.428841-13.428841-21.007998-31.61373-21.007998-50.917689 0-39.854155 32.427599-72.307188 72.332621-72.307188l307.795142 0c39.879589 0 72.332621 32.427599 72.332621 72.307188 0 19.303959-7.52829 37.437981-21.211465 51.121156l-119.333565 113.509314 0 180.017684C880.110471 1012.605832 868.716303 1024 854.67706 1024z" p-id="2080"></path></svg>