<?xml version="1.0" standalone="no"?><!DOCTYPE svg PUBLIC "-//W3C//DTD SVG 1.1//EN" "http://www.w3.org/Graphics/SVG/1.1/DTD/svg11.dtd"><svg t="1532567608939" class="icon" style="" viewBox="0 0 1024 1024" version="1.1" xmlns="http://www.w3.org/2000/svg" p-id="1927" xmlns:xlink="http://www.w3.org/1999/xlink" width="200" height="200"><defs><style type="text/css"></style></defs><path d="M693.937191 271.932366c20.762883-27.057239 32.849152-56.856939 32.849152-84.963067 0-45.844118-27.937283-122.748648-215.003795-122.748648-80.31521 0-215.030401 15.947204-215.030401 122.748648 0 28.106128 12.087293 57.905828 32.851199 84.963067-137.099495 90.182952-229.071186 263.042905-229.071186 366.362039 0 195.125049 161.415296 321.233212 411.251412 321.233212 249.810532 0 411.225829-126.108163 411.225829-321.233212C923.007353 534.974247 831.035662 362.091782 693.937191 271.932366zM511.781524 898.213155c-193.289238 0-349.960487-83.033112-349.960487-259.919774 0-101.007485 120.984469-303.784818 279.801591-352.892259-48.560996-23.863501-83.579557-67.560722-83.579557-98.431823 0-44.412512 68.823482-61.434188 153.739477-61.434188 84.890412 0 153.714917 17.020652 153.714917 61.434188 0 30.871101-34.994002 74.569346-83.58058 98.431823 158.818145 49.108464 279.801591 251.884774 279.801591 352.892259C861.717452 815.180044 705.044156 898.213155 511.781524 898.213155z" p-id="1928"></path><path d="M608.830861 574.71332c16.925485 0 30.635741-13.731746 30.635741-30.656207 0-16.901948-13.709233-30.634718-30.635741-30.634718l-42.266639 0 46.964638-46.964638c11.965519-11.966543 11.965519-31.371498 0-43.339064-11.969613-11.967566-31.373545-11.967566-43.341111 0l-58.049091 58.048067-58.049091-58.048067c-11.967566-11.967566-31.348985-11.967566-43.340087 0-11.967566 11.966543-11.967566 31.372521 0 43.339064l46.963615 46.964638-42.98193 0c-16.925485 0-30.65723 13.731746-30.65723 30.634718 0 16.924461 13.731746 30.656207 30.65723 30.656207l66.393129 0 0 33.399691L411.966191 608.113011c-16.926508 0-30.633694 13.730723-30.633694 30.633694 0 16.924461 13.707187 30.656207 30.633694 30.656207l69.158103 0 0 58.550511c0 16.901948 13.731746 30.633694 30.65723 30.633694 16.924461 0 30.632671-13.731746 30.632671-30.633694l0-58.550511 63.650669 0c16.925485 0 30.65723-13.731746 30.65723-30.656207 0-16.902972-13.731746-30.633694-30.65723-30.633694l-63.650669 0 0-33.399691L608.830861 574.71332z" p-id="1929"></path></svg>