<?xml version="1.0" standalone="no"?><!DOCTYPE svg PUBLIC "-//W3C//DTD SVG 1.1//EN" "http://www.w3.org/Graphics/SVG/1.1/DTD/svg11.dtd"><svg t="1532934027483" class="icon" style="" viewBox="0 0 1024 1024" version="1.1" xmlns="http://www.w3.org/2000/svg" p-id="1584" xmlns:xlink="http://www.w3.org/1999/xlink" width="200" height="200"><defs><style type="text/css"></style></defs><path d="M959.825022 191.939717C959.825022 121.2479 902.517291 63.940169 831.825474 63.940169H191.939717C121.2479 63.940169 63.940169 121.2479 63.940169 191.939717v639.885757C63.940169 902.517291 121.2479 959.825022 191.939717 959.825022h639.885757c70.691817 0 127.999548-57.307731 127.999548-127.999548V191.939717z m-63.940168 640.059154A63.835408 63.835408 0 0 1 831.912173 895.884854H192.087827c-17.112123 0-33.270563-6.574639-45.372232-18.67631S127.880338 849.110994 127.880338 831.998871V192.001129A64.236389 64.236389 0 0 1 192.087827 127.880338h639.824346A64.037705 64.037705 0 0 1 895.884854 192.001129v639.997742z" fill="" p-id="1585"></path><path d="M511.998194 192.001129c-176.73135 0-320.000677 143.269328-320.000678 320.000677s143.269328 320.000677 320.000678 320.000678 320.000677-143.269328 320.000677-320.000678-143.269328-320.000677-320.000677-320.000677z m256.060508 320.000677a254.568571 254.568571 0 0 1-43.710511 143.121218 256.988905 256.988905 0 0 1-112.708094 92.83968 255.641465 255.641465 0 0 1-242.755896-23.596451 256.992518 256.992518 0 0 1-92.839681-112.708094 255.641465 255.641465 0 0 1 23.596452-242.755896 256.992518 256.992518 0 0 1 112.708094-92.83968 255.641465 255.641465 0 0 1 242.755896 23.596451 256.988905 256.988905 0 0 1 92.83968 112.708094 254.395174 254.395174 0 0 1 20.11406 99.631066z" fill="" p-id="1586"></path><path d="M544.033302 498.64662V351.851551a31.970084 31.970084 0 0 0-63.940169 0v160.031045a31.970084 31.970084 0 0 0 9.356217 22.595805L617.365812 662.521299a31.970084 31.970084 0 1 0 45.231348-45.195223z" fill="" p-id="1587"></path></svg>