<?xml version="1.0" standalone="no"?><!DOCTYPE svg PUBLIC "-//W3C//DTD SVG 1.1//EN" "http://www.w3.org/Graphics/SVG/1.1/DTD/svg11.dtd"><svg class="icon" width="200px" height="200.00px" viewBox="0 0 1024 1024" version="1.1" xmlns="http://www.w3.org/2000/svg"><path fill="#333333" d="M490.752 791.232A21.333333 21.333333 0 0 1 512 768c13.866667 0 27.669333-0.618667 41.344-1.834667C748.032 748.778667 896 611.093333 896 448c0-175.850667-171.178667-320-384-320S128 272.149333 128 448c0 89.770667 44.693333 173.845333 122.410667 234.176a21.333333 21.333333 0 0 1-26.154667 33.706667C136.512 647.765333 85.333333 551.509333 85.333333 448c0-201.173333 191.765333-362.666667 426.666667-362.666667s426.666667 161.493333 426.666667 362.666667c0 186.816-166.186667 341.44-381.525334 360.661333-8.96 0.789333-17.92 1.365333-26.965333 1.685334-18.986667 73.557333-82.602667 116.778667-161.002667 127.445333-31.616 4.309333-61.952 2.197333-80.554666-5.866667-32.917333-14.250667-30.037333-46.933333 3.178666-64.256 20.352-10.602667 31.893333-25.450667 37.013334-44.224 4.48-16.490667 3.712-34.922667-0.426667-52.565333a95.061333 95.061333 0 0 0-3.114667-10.965333 21.333333 21.333333 0 0 1 39.893334-15.189334c1.28 3.456 3.072 9.088 4.778666 16.448 5.589333 23.957333 6.634667 49.152 0.021334 73.472a108.842667 108.842667 0 0 1-44.096 62.229334c10.752 0.853333 23.893333 0.512 37.546666-1.344 65.877333-8.981333 116.053333-44.714667 127.338667-104.32zM352 426.666667a21.333333 21.333333 0 0 1 0-42.666667h341.333333a21.333333 21.333333 0 0 1 0 42.666667h-341.333333z m0 128a21.333333 21.333333 0 0 1 0-42.666667h213.333333a21.333333 21.333333 0 0 1 0 42.666667h-213.333333z" /></svg>