<?xml version="1.0" standalone="no"?><!DOCTYPE svg PUBLIC "-//W3C//DTD SVG 1.1//EN" "http://www.w3.org/Graphics/SVG/1.1/DTD/svg11.dtd"><svg t="1532568081599" class="icon" style="" viewBox="0 0 1024 1024" version="1.1" xmlns="http://www.w3.org/2000/svg" p-id="3755" xmlns:xlink="http://www.w3.org/1999/xlink" width="200" height="200"><defs><style type="text/css"></style></defs><path d="M911.36 955.733333l-129.706667-129.706667c47.786667-51.2 75.093333-119.466667 75.093333-191.146667 0-153.6-122.88-276.48-276.48-276.48s-276.48 122.88-276.48 276.48c0 153.6 122.88 276.48 276.48 276.48 20.48 0 44.373333-3.413333 68.266667-6.826667 0 0 30.72-10.24 58.026667-10.24 10.24 0 17.066667-6.826667 17.066667-17.066667s-6.826667-17.066667-17.066667-17.066667c-34.133333 0-68.266667 10.24-68.266667 10.24-20.48 3.413333-37.546667 6.826667-58.026667 6.826667-133.12 0-242.346667-109.226667-242.346667-242.346667 0-133.12 109.226667-242.346667 242.346667-242.346667 133.12 0 242.346667 109.226667 242.346667 242.346667 0 68.266667-27.306667 133.12-75.093333 177.493333-3.413333 3.413333-6.826667 6.826667-6.826667 13.653333 0 3.413333 3.413333 10.24 6.826667 13.653333l143.36 143.36c3.413333 3.413333 6.826667 6.826667 13.653333 6.826667s10.24-3.413333 13.653333-6.826667C918.186667 976.213333 918.186667 962.56 911.36 955.733333z" p-id="3756"></path><path d="M365.226667 914.773333 249.173333 914.773333c-34.133333 0-61.44-27.306667-61.44-61.44L187.733333 126.293333c0-34.133333 27.306667-61.44 64.853333-61.44l471.04 0c34.133333 0 61.44 27.306667 61.44 61.44l0 235.52c0 10.24 6.826667 17.066667 17.066667 17.066667s17.066667-6.826667 17.066667-17.066667L819.2 126.293333c0-54.613333-40.96-95.573333-95.573333-95.573333L252.586667 30.72c-54.613333 0-98.986667 44.373333-98.986667 95.573333L153.6 853.333333c0 54.613333 40.96 95.573333 95.573333 95.573333l116.053333 0c10.24 0 17.066667-6.826667 17.066667-17.066667S375.466667 914.773333 365.226667 914.773333z" p-id="3757"></path><path d="M409.6 102.4c-10.24 0-17.066667 6.826667-17.066667 17.066667S399.36 136.533333 409.6 136.533333l153.6 0C573.44 136.533333 580.266667 129.706667 580.266667 119.466667S573.44 102.4 563.2 102.4L409.6 102.4z" p-id="3758"></path><path d="M409.6 515.413333c-20.48 30.72-40.96 64.853333-40.96 122.88 0 10.24 6.826667 17.066667 17.066667 17.066667s17.066667-6.826667 17.066667-17.066667c0-47.786667 17.066667-75.093333 34.133333-102.4 6.826667-6.826667 3.413333-20.48-3.413333-23.893333C426.666667 505.173333 413.013333 508.586667 409.6 515.413333z" p-id="3759"></path></svg>