<?xml version="1.0" standalone="no"?><!DOCTYPE svg PUBLIC "-//W3C//DTD SVG 1.1//EN" "http://www.w3.org/Graphics/SVG/1.1/DTD/svg11.dtd"><svg t="1532568702391" class="icon" style="" viewBox="0 0 1024 1024" version="1.1" xmlns="http://www.w3.org/2000/svg" p-id="2503" xmlns:xlink="http://www.w3.org/1999/xlink" width="200" height="200"><defs><style type="text/css"></style></defs><path d="M511.880785 959.53171c-246.986207 0-447.910333-200.924125-447.910333-447.888843 0-246.965741 200.924125-447.931822 447.910333-447.931822s447.910333 200.966081 447.910333 447.931822C959.791118 758.607584 758.866992 959.53171 511.880785 959.53171zM511.880785 122.751718c-214.449163 0-388.911614 174.420495-388.911614 388.891148 0 214.427674 174.46245 388.890124 388.911614 388.890124 214.44814 0 388.912637-174.46245 388.912637-388.890124C900.792399 297.173237 726.328925 122.751718 511.880785 122.751718z" p-id="2504"></path><path d="M511.880785 320.088132l54.376445 115.170043 126.332267 16.121166-92.738148 87.314625 23.717168 125.128859-111.687732-61.235666-111.687732 61.235666 23.717168-125.128859-92.738148-87.314625 126.332267-16.121166L511.880785 320.088132M511.880785 261.089413 511.880785 261.089413c-22.852474 0-43.61638 13.166881-53.364395 33.803897l-40.556695 85.922928-94.257757 12.026918c-22.641673 2.912329-41.590234 18.611893-48.659233 40.302915-7.068999 21.734-0.949628 45.579081 15.678074 61.192687l69.169359 65.161069-17.682731 93.350085c-4.241604 22.408359 4.832052 45.283346 23.295566 58.70196 10.29753 7.513114 22.472827 11.311627 34.69008 11.311627 9.749038 0 19.497053-2.405793 28.359908-7.30129l83.327824-45.662992 83.327824 45.662992c8.862855 4.895497 18.611893 7.30129 28.359908 7.30129 12.217253 0 24.39255-3.798513 34.689057-11.311627 18.485003-13.418614 27.558659-36.293601 23.297612-58.70196l-17.682731-93.350085 69.168336-65.119113c16.627702-15.656585 22.747073-39.501666 15.699564-61.234643-7.090489-21.691021-26.038026-37.390585-48.679699-40.302915l-94.257757-12.026918-40.555671-85.922928C555.496142 274.256294 534.711769 261.089413 511.880785 261.089413L511.880785 261.089413z" p-id="2505"></path></svg>