<?xml version="1.0" standalone="no"?><!DOCTYPE svg PUBLIC "-//W3C//DTD SVG 1.1//EN" "http://www.w3.org/Graphics/SVG/1.1/DTD/svg11.dtd"><svg t="1541036352317" class="icon" style="" viewBox="0 0 1024 1024" version="1.1" xmlns="http://www.w3.org/2000/svg" p-id="4013" xmlns:xlink="http://www.w3.org/1999/xlink" width="200" height="200"><defs><style type="text/css"></style></defs><path d="M320 800a32 32 0 0 1 0-64h384a32 32 0 0 1 0 64H320zM510.08 551.424c-0.032 0-0.032 0 0 0a95.584 95.584 0 0 1-74.208-35.072l-251.84-306.56a96.128 96.128 0 0 1-21.824-60.928c0-52.928 43.072-96 96-96h503.648c22.176 0 43.84 7.744 60.928 21.824a96.096 96.096 0 0 1 13.248 135.104l-251.808 306.56a95.968 95.968 0 0 1-74.144 35.072zM258.208 116.864a32.064 32.064 0 0 0-24.704 52.32l251.84 306.56c6.08 7.424 15.136 11.68 24.736 11.68a31.68 31.68 0 0 0 24.736-11.744l251.776-306.496a32.064 32.064 0 0 0-24.768-52.32H258.208z" p-id="4014"></path><path d="M864 960H160c-52.928 0-96-43.072-96-96V416c0-52.928 43.072-96 96-96h12.512v64H160c-17.632 0-32 14.368-32 32v448c0 17.664 14.368 32 32 32h704a32 32 0 0 0 32-32V416c0-17.632-14.336-32-32-32h-22.88v-64H864c52.928 0 96 43.072 96 96v448c0 52.928-43.072 96-96 96z" p-id="4015"></path></svg>