<?xml version="1.0" standalone="no"?><!DOCTYPE svg PUBLIC "-//W3C//DTD SVG 1.1//EN" "http://www.w3.org/Graphics/SVG/1.1/DTD/svg11.dtd"><svg t="1530235411393" class="icon" style="" viewBox="0 0 1024 1024" version="1.1" xmlns="http://www.w3.org/2000/svg" p-id="900" xmlns:xlink="http://www.w3.org/1999/xlink" width="200" height="200"><defs><style type="text/css"></style></defs><path d="M797.759791 686.753069c0.058328 65.555042-24.419156 101.028974-33.951253 112.39893-36.371372 30.979572-78.603219 55.397704-124.84131 71.415516 22.933315-42.310641 5.3918-92.550883-0.684592-107.201557-10.333346-24.88783-44.456514-67.431785-101.400435-126.46325-15.177678-15.783475-14.20042-27.894304-8.750291-63.875796l0.605797-4.064572c3.711532-24.650423 9.882068-39.223327 93.802386-52.389184 42.661635-6.680143 53.872978 10.158361 69.424162 33.481556 1.718131 2.577708 3.416819 5.117554 5.173836 7.656377 14.787798 21.332864 25.707498 26.215058 42.25436 33.638121 7.40055 3.320629 16.643052 7.500834 29.02608 14.4542 29.341259 16.565281 29.341259 35.280528 29.341259 76.299757L797.759791 686.753069zM511.743662 129.919978c59.852156 0 116.539226 13.477966 167.152974 37.582967-27.799136 17.385972-67.765383 44.576241-84.212984 66.845431-6.093788 8.243755-11.329023 16.056698-16.174378 23.245424-16.074094 23.908526-23.790846 34.574447-38.598086 36.411281-7.345292 0.898463-17.189498 0.273223-27.641547-0.390903-27.952632-1.796926-66.219167-4.220115-78.466096 28.636201-7.776104 20.823258-9.143241 77.353762 16.016789 106.693997 4.02364 4.688789 4.805446 13.361309 2.069125 23.087834-3.593851 12.775978-10.860349 20.550035-13.125949 22.152533-4.336772-2.463098-12.989849-12.385075-18.829857-19.144012-14.162558-16.21224-31.762401-36.411281-54.53915-42.660612-8.281617-2.267647-17.404392-4.142343-26.213012-5.979178-24.711821-5.116531-52.704362-10.93812-59.228963-24.650423-4.707209-10.04068-4.707209-23.870664-4.707209-38.48143 0.020466-18.517749 0.020466-39.458687-9.160637-59.813271-7.950066-17.696034-21.995967-27.26804-36.763298-31.956829C299.878346 176.762843 400.342456 129.919978 511.743662 129.919978zM838.429049 251.030313c0 0-5.666046-9.376555-15.256472-9.336646-9.397021 0.038886-17.015535 7.499811-17.015535 16.798595 0 6.134721 2.443655 9.29776 2.443655 9.29776 55.612599 66.024739 89.228207 150.723793 89.228207 243.119133 0 81.143065-25.920346 156.388816-69.930699 218.272235 2.130524-12.814864 3.477194-26.840298 3.456728-42.428322l0-4.608971c0-42.427298 0.021489-79.034031-46.272883-105.132432-13.732769-7.737218-23.734564-12.226462-31.781844-15.860223-14.535041-6.486738-18.929118-8.479115-28.42233-22.153556-1.641383-2.381234-3.263323-4.803399-4.864798-7.186679-16.309454-24.49488-38.696324-58.054207-102.709243-47.974641-86.143962 13.477966-114.585735 32.230052-121.813347 80.284511l-0.606821 4.02364c-5.350868 35.395138-9.56996 63.368236 17.681708 91.613534 70.868047 73.486688 89.698928 104.35165 94.601588 116.187209 9.785877 23.51967 15.256472 57.039087 1.307785 80.674391-10.549264 17.932418-33.597189 29.614481-64.85203 33.873482-10.527774 0.859577-21.135366 1.406023-31.879058 1.406023-212.879412 0-386.067846-170.921811-386.067846-380.989177 0-86.339414 29.281907-166.037571 78.526471-229.991138 10.19827 0.078795 25.179472 2.656503 31.175023 16.017812 6.291287 13.907755 6.291287 29.652344 6.251378 46.295396 0 17.618263 0 35.864836 7.892761 52.54575 13.595646 28.754904 50.339502 36.371372 82.745563 43.091424 8.692986 1.796926 16.877389 3.477194 24.142863 5.469572 12.933567 3.554966 26.253944 18.830881 38.014802 32.347732 14.453177 16.565281 26.936489 30.903847 43.949978 30.903847 18.59552 0 33.383318-17.308201 40.981367-33.521464 9.103332-19.337417 12.874215-46.998407-3.906983-66.531276-15.744589-18.439978-14.747889-61.375859-10.119475-73.877591 3.323699-8.867972 21.449521-8.438183 44.773739-6.953366 11.56336 0.741897 23.477714 1.484817 33.968649 0.196475 30.746258-3.790326 45.432749-25.629727 62.449307-50.944276 4.571109-6.837732 9.55154-14.260795 15.313777-22.074761 14.787798-20.001543 61.318554-50.279127 88.997963-66.884316 0 0 18.107403-11.094686 20.86112-13.048177 1.602498-1.171686 10.235109-9.688663-2.499937-17.306154-63.446008-37.934984-137.831158-59.891042-217.450521-59.891042-231.79011 0-419.684478 185.414897-419.684478 414.156578s187.894368 414.157601 419.684478 414.157601c231.79011 0 419.685501-185.41592 419.685501-414.157601C931.429163 412.45789 896.561028 322.095859 838.429049 251.030313z" p-id="901"></path></svg>